{
	"asset":{
		"generator":"Khronos glTF Blender I/O v4.4.55",
		"version":"2.0"
	},
	"scene":0,
	"scenes":[
		{
			"name":"Scene",
			"nodes":[
				0
			]
		}
	],
	"nodes":[
		{
			"mesh":0,
			"name":"tripo_node_b68812cf-1a20-40bd-8ac4-bc06bb36e110"
		}
	],
	"materials":[
		{
			"name":"tripo_mat_b68812cf-1a20-40bd-8ac4-bc06bb36e110",
			"pbrMetallicRoughness":{
				"baseColorTexture":{
					"index":0
				},
				"roughnessFactor":0.9036020040512085
			}
		}
	],
	"meshes":[
		{
			"name":"tripo_mesh_b68812cf-1a20-40bd-8ac4-bc06bb36e110",
			"primitives":[
				{
					"attributes":{
						"POSITION":0,
						"NORMAL":1,
						"TEXCOORD_0":2
					},
					"indices":3,
					"material":0
				}
			]
		}
	],
	"textures":[
		{
			"sampler":0,
			"source":0
		}
	],
	"images":[
		{
			"mimeType":"image/jpeg",
			"name":"tripo_image_b68812cf-1a20-40bd-8ac4-bc06bb36e110_0",
			"uri":"tripo_image_b68812cf-1a20-40bd-8ac4-bc06bb36e110_0.jpg"
		}
	],
	"accessors":[
		{
			"bufferView":0,
			"componentType":5126,
			"count":3003314,
			"max":[
				0.499969482421875,
				0.499420166015625,
				0.2129364013671875
			],
			"min":[
				-0.5,
				-0.49945068359375,
				-0.21295166015625
			],
			"type":"VEC3"
		},
		{
			"bufferView":1,
			"componentType":5126,
			"count":3003314,
			"type":"VEC3"
		},
		{
			"bufferView":2,
			"componentType":5126,
			"count":3003314,
			"type":"VEC2"
		},
		{
			"bufferView":3,
			"componentType":5125,
			"count":3004989,
			"type":"SCALAR"
		}
	],
	"bufferViews":[
		{
			"buffer":0,
			"byteLength":36039768,
			"byteOffset":0,
			"target":34962
		},
		{
			"buffer":0,
			"byteLength":36039768,
			"byteOffset":36039768,
			"target":34962
		},
		{
			"buffer":0,
			"byteLength":24026512,
			"byteOffset":72079536,
			"target":34962
		},
		{
			"buffer":0,
			"byteLength":12019956,
			"byteOffset":96106048,
			"target":34963
		}
	],
	"samplers":[
		{
			"magFilter":9729,
			"minFilter":9987
		}
	],
	"buffers":[
		{
			"byteLength":108126004,
			"uri":"GR.bin"
		}
	]
}
